<mxfile host="app.diagrams.net" modified="2023-05-23T11:13:02.186Z" agent="Mozilla/5.0 (Windows NT 10.0; Win64; x64) AppleWebKit/537.36 (KHTML, like Gecko) Chrome/113.0.0.0 Safari/537.36" etag="Ked4c1Pn77hhTwga24Xa" version="21.2.9" type="device">
  <diagram name="Page-1" id="UWaMZBhDPoUf0GJ0WIC_">
    <mxGraphModel dx="1050" dy="541" grid="1" gridSize="10" guides="1" tooltips="1" connect="1" arrows="1" fold="1" page="1" pageScale="1" pageWidth="827" pageHeight="1169" math="0" shadow="0">
      <root>
        <mxCell id="0" />
        <mxCell id="1" parent="0" />
        <mxCell id="oZhrsHeczsRRkJRKF2Gt-18" style="edgeStyle=orthogonalEdgeStyle;rounded=0;orthogonalLoop=1;jettySize=auto;html=1;exitX=1;exitY=0.5;exitDx=0;exitDy=0;entryX=0;entryY=0.5;entryDx=0;entryDy=0;" edge="1" parent="1" source="oZhrsHeczsRRkJRKF2Gt-4" target="oZhrsHeczsRRkJRKF2Gt-15">
          <mxGeometry relative="1" as="geometry" />
        </mxCell>
        <mxCell id="oZhrsHeczsRRkJRKF2Gt-4" value="On duration 2 seconds" style="rounded=0;whiteSpace=wrap;html=1;" vertex="1" parent="1">
          <mxGeometry x="80" y="200" width="80" height="80" as="geometry" />
        </mxCell>
        <mxCell id="oZhrsHeczsRRkJRKF2Gt-22" style="edgeStyle=orthogonalEdgeStyle;rounded=0;orthogonalLoop=1;jettySize=auto;html=1;exitX=1;exitY=0.5;exitDx=0;exitDy=0;entryX=0;entryY=0.5;entryDx=0;entryDy=0;" edge="1" parent="1" source="oZhrsHeczsRRkJRKF2Gt-5" target="oZhrsHeczsRRkJRKF2Gt-16">
          <mxGeometry relative="1" as="geometry" />
        </mxCell>
        <mxCell id="oZhrsHeczsRRkJRKF2Gt-5" value="Off duration 5 seconds" style="rounded=0;whiteSpace=wrap;html=1;" vertex="1" parent="1">
          <mxGeometry x="320" y="200" width="80" height="80" as="geometry" />
        </mxCell>
        <mxCell id="oZhrsHeczsRRkJRKF2Gt-19" style="edgeStyle=orthogonalEdgeStyle;rounded=0;orthogonalLoop=1;jettySize=auto;html=1;exitX=1;exitY=0.5;exitDx=0;exitDy=0;entryX=0;entryY=0.5;entryDx=0;entryDy=0;" edge="1" parent="1" source="oZhrsHeczsRRkJRKF2Gt-15" target="oZhrsHeczsRRkJRKF2Gt-5">
          <mxGeometry relative="1" as="geometry" />
        </mxCell>
        <mxCell id="oZhrsHeczsRRkJRKF2Gt-15" value="Cycle increased by 1" style="rounded=0;whiteSpace=wrap;html=1;" vertex="1" parent="1">
          <mxGeometry x="200" y="215" width="80" height="50" as="geometry" />
        </mxCell>
        <mxCell id="oZhrsHeczsRRkJRKF2Gt-23" style="edgeStyle=orthogonalEdgeStyle;rounded=0;orthogonalLoop=1;jettySize=auto;html=1;exitX=0.5;exitY=1;exitDx=0;exitDy=0;entryX=0.5;entryY=0;entryDx=0;entryDy=0;" edge="1" parent="1" source="oZhrsHeczsRRkJRKF2Gt-16" target="oZhrsHeczsRRkJRKF2Gt-21">
          <mxGeometry relative="1" as="geometry" />
        </mxCell>
        <mxCell id="oZhrsHeczsRRkJRKF2Gt-25" style="edgeStyle=orthogonalEdgeStyle;rounded=0;orthogonalLoop=1;jettySize=auto;html=1;exitX=1;exitY=0.5;exitDx=0;exitDy=0;entryX=0;entryY=0.5;entryDx=0;entryDy=0;" edge="1" parent="1" source="oZhrsHeczsRRkJRKF2Gt-16" target="oZhrsHeczsRRkJRKF2Gt-20">
          <mxGeometry relative="1" as="geometry" />
        </mxCell>
        <mxCell id="oZhrsHeczsRRkJRKF2Gt-16" value="Is cycle greater than&amp;nbsp;4" style="rounded=1;whiteSpace=wrap;html=1;" vertex="1" parent="1">
          <mxGeometry x="440" y="210" width="120" height="60" as="geometry" />
        </mxCell>
        <mxCell id="oZhrsHeczsRRkJRKF2Gt-30" style="edgeStyle=orthogonalEdgeStyle;rounded=0;orthogonalLoop=1;jettySize=auto;html=1;exitX=0.5;exitY=1;exitDx=0;exitDy=0;entryX=0.5;entryY=0;entryDx=0;entryDy=0;" edge="1" parent="1" source="oZhrsHeczsRRkJRKF2Gt-20" target="oZhrsHeczsRRkJRKF2Gt-29">
          <mxGeometry relative="1" as="geometry" />
        </mxCell>
        <mxCell id="oZhrsHeczsRRkJRKF2Gt-20" value="Yes" style="rounded=0;whiteSpace=wrap;html=1;" vertex="1" parent="1">
          <mxGeometry x="600" y="215" width="80" height="50" as="geometry" />
        </mxCell>
        <mxCell id="oZhrsHeczsRRkJRKF2Gt-32" style="edgeStyle=orthogonalEdgeStyle;rounded=0;orthogonalLoop=1;jettySize=auto;html=1;exitX=0;exitY=0.5;exitDx=0;exitDy=0;entryX=0.75;entryY=1;entryDx=0;entryDy=0;" edge="1" parent="1" source="oZhrsHeczsRRkJRKF2Gt-21" target="oZhrsHeczsRRkJRKF2Gt-4">
          <mxGeometry relative="1" as="geometry" />
        </mxCell>
        <mxCell id="oZhrsHeczsRRkJRKF2Gt-21" value="No" style="rounded=0;whiteSpace=wrap;html=1;" vertex="1" parent="1">
          <mxGeometry x="460" y="310" width="80" height="50" as="geometry" />
        </mxCell>
        <mxCell id="oZhrsHeczsRRkJRKF2Gt-27" style="edgeStyle=orthogonalEdgeStyle;rounded=0;orthogonalLoop=1;jettySize=auto;html=1;exitX=0.5;exitY=1;exitDx=0;exitDy=0;entryX=0.25;entryY=1;entryDx=0;entryDy=0;" edge="1" parent="1" source="oZhrsHeczsRRkJRKF2Gt-26" target="oZhrsHeczsRRkJRKF2Gt-4">
          <mxGeometry relative="1" as="geometry" />
        </mxCell>
        <mxCell id="oZhrsHeczsRRkJRKF2Gt-26" value="Wait the alloted pause duration 60 seconds" style="rounded=1;whiteSpace=wrap;html=1;" vertex="1" parent="1">
          <mxGeometry x="580" y="390" width="120" height="60" as="geometry" />
        </mxCell>
        <mxCell id="oZhrsHeczsRRkJRKF2Gt-31" style="edgeStyle=orthogonalEdgeStyle;rounded=0;orthogonalLoop=1;jettySize=auto;html=1;exitX=0.5;exitY=1;exitDx=0;exitDy=0;entryX=0.5;entryY=0;entryDx=0;entryDy=0;" edge="1" parent="1" source="oZhrsHeczsRRkJRKF2Gt-29" target="oZhrsHeczsRRkJRKF2Gt-26">
          <mxGeometry relative="1" as="geometry" />
        </mxCell>
        <mxCell id="oZhrsHeczsRRkJRKF2Gt-29" value="Cycle = 0" style="rounded=0;whiteSpace=wrap;html=1;" vertex="1" parent="1">
          <mxGeometry x="600" y="310" width="80" height="50" as="geometry" />
        </mxCell>
        <mxCell id="oZhrsHeczsRRkJRKF2Gt-33" value="Note: Times are for illustration purpose only." style="text;html=1;strokeColor=none;fillColor=none;align=center;verticalAlign=middle;whiteSpace=wrap;rounded=0;fontStyle=1" vertex="1" parent="1">
          <mxGeometry x="120" y="400" width="480" height="30" as="geometry" />
        </mxCell>
        <mxCell id="oZhrsHeczsRRkJRKF2Gt-34" value="&lt;b&gt;&lt;font style=&quot;font-size: 22px;&quot;&gt;Solenoid pulse sequence&lt;/font&gt;&lt;/b&gt;" style="text;html=1;strokeColor=none;fillColor=none;align=center;verticalAlign=middle;whiteSpace=wrap;rounded=0;" vertex="1" parent="1">
          <mxGeometry x="240" y="110" width="270" height="80" as="geometry" />
        </mxCell>
      </root>
    </mxGraphModel>
  </diagram>
</mxfile>
